<svg width="60" height="48" viewBox="0 0 60 48" fill="none" xmlns="http://www.w3.org/2000/svg">
<g clip-path="url(#clip0_82_319)">
<path d="M47.26 31.433C47.26 33.8618 44.9333 36.2509 42.0902 36.739C29.7815 38.7478 17.4728 40.7511 5.1641 42.76C2.321 43.248 -0.00567627 40.5524 -0.00567627 36.7673V6.04947C-1.43843e-06 2.26436 2.32668 -0.431188 5.16977 0.0568474C17.4785 2.06006 29.7872 4.06895 42.0959 6.07217C44.939 6.5602 47.2657 8.94931 47.2657 11.3781V31.433H47.26Z" fill="#FFCF00"/>
<path d="M12.7343 13.5628C12.7343 11.1339 15.061 8.74483 17.9041 8.2568C30.2128 6.24791 42.5215 4.24469 54.8302 2.2358C57.6733 1.74777 60 4.44331 60 8.22842V38.9406C60 42.7257 57.6733 45.4269 54.8302 44.9332C42.5215 42.9243 30.2128 40.9211 17.9041 38.9122C15.061 38.4242 12.7343 36.0351 12.7343 33.6063V13.5628Z" fill="#CA285A"/>
<path d="M48.0885 32.4658C47.7083 32.2558 47.277 32.1423 46.84 32.1423C45.898 32.1423 45.0298 32.653 44.5758 33.4759C44.3942 33.7993 44.2069 34.1228 44.0026 34.4406C43.3103 30.4285 41.693 25.6049 40.6942 23.4768C39.0258 19.9244 39.4741 19.0732 39.4741 19.0732C39.4741 19.0732 39.5195 19.0448 39.6841 19.0278C39.8713 19.0278 40.2743 19.7655 40.4672 20.123C40.9666 21.0367 41.7213 22.4156 43.2706 22.4156C43.5032 22.4156 43.7359 22.3816 43.9743 22.3192C44.695 22.1262 45.4838 21.4282 45.9831 20.5429C46.4598 19.7031 46.596 18.8178 46.3747 18.0403C46.2555 17.6261 46.0115 16.8713 45.7164 15.9747C45.3986 14.9986 44.8936 13.4608 44.6666 12.6379C44.7858 12.5414 45.0808 12.3144 45.0808 12.3144C47.4416 10.4588 48.2417 9.76644 47.941 8.75064C47.4302 7.01982 41.2163 6.94604 41.1539 6.94604C38.4243 6.94604 34.6846 7.51353 32.3806 10.2318C29.895 13.1657 29.4864 16.8713 29.2197 19.3229L29.1629 19.8336C29.1516 19.9584 29.1346 20.0549 29.1175 20.1344C28.9757 20.1344 28.8168 20.1344 28.6409 20.1514C26.6547 20.2535 22.2226 20.9742 19.1582 22.9774C18.2332 20.6451 16.3208 19.3683 13.7047 19.3683C13.4039 19.3683 13.0861 19.3853 12.7684 19.4193C8.25119 19.8847 7.93908 23.9251 7.72911 26.598C7.68371 27.1882 7.64399 27.7443 7.56454 28.221C7.38294 29.3333 5.6578 29.7759 4.51148 30.071C3.64891 30.2923 3.02467 30.4512 2.72391 31.0868C2.56501 31.4273 2.56501 31.8188 2.72391 32.1593C3.22329 33.2205 5.96991 35.184 8.56898 35.184C8.75058 35.184 8.93217 35.1727 9.10809 35.1556C15.2369 34.5257 15.271 29.2765 15.288 26.7512C15.288 26.6207 15.288 26.4391 15.288 26.2518C15.4696 26.4334 15.6966 26.6888 15.9803 27.0406C15.9236 27.2619 15.8838 27.4889 15.8555 27.7159C15.5377 30.332 15.5831 34.2533 15.9406 37.5788C15.5944 37.2383 15.2596 36.8808 14.9418 36.5119C14.4481 35.9388 13.7388 35.6153 12.984 35.6153C12.3654 35.6153 11.7696 35.8366 11.3043 36.2395C10.226 37.1645 10.1012 38.7989 11.0262 39.8828C15.3731 44.9447 21.78 47.8502 28.6068 47.8502C29.4183 47.8502 30.2412 47.8105 31.0583 47.7254C38.7137 46.9423 45.4497 42.5499 49.0816 35.9842C49.7683 34.7357 49.3143 33.1638 48.0715 32.4714L48.0885 32.4658ZM28.6295 42.6805C26.0645 42.6805 23.5051 42.1413 21.1841 41.1142C22.4666 37.8569 24.6174 32.4374 30.156 31.8699C30.4284 31.8415 30.7008 31.8302 30.9619 31.8302C35.1158 31.8302 36.9658 35.4564 38.4583 38.3733C38.6626 38.7705 38.8612 39.1564 39.0542 39.5139C36.5459 41.2164 33.6177 42.2719 30.559 42.5897C29.9234 42.6521 29.2764 42.6861 28.6352 42.6861L28.6295 42.6805Z" fill="white"/>
<path d="M18.534 28.187C18.1821 28.4594 16.0598 24.3451 14.6013 24.6402C13.1372 24.9353 16.3605 33.2376 9.00594 33.9923C6.57143 34.242 4.05181 32.2161 3.79077 31.66C3.52972 31.1038 8.27956 31.1719 8.72219 28.4026C9.17051 25.6333 8.52358 21.0197 12.8932 20.5714C19.8449 19.8563 18.534 28.187 18.534 28.187Z" fill="#970390"/>
<path d="M46.8287 9.07405C46.6925 8.61439 37.2269 6.31041 33.2715 10.9808C30.837 13.8523 30.5817 17.6941 30.3206 19.9641C33.8504 6.63387 41.7214 11.6845 42.8733 12.0704C43.0549 12.1328 43.2365 12.1668 43.4125 12.1839C43.6111 11.9001 46.9592 9.53371 46.823 9.07972L46.8287 9.07405Z" fill="#970390"/>
<path d="M45.2625 18.3582C44.9163 17.1437 43.2763 12.4507 43.4011 12.1953C43.4011 12.1953 43.4068 12.1896 43.4125 12.1839C43.2365 12.1669 43.055 12.1329 42.8734 12.0704C41.7214 11.6902 33.8447 6.63396 30.3206 19.9641C30.2242 20.821 30.0312 21.3545 29.5205 21.3091C29.3275 21.292 29.0495 21.292 28.7033 21.3091C29.1289 21.9787 29.407 22.7562 29.4978 23.6074C29.7929 26.4561 27.784 28.9985 25.0203 29.2822C22.2567 29.566 19.7768 27.4833 19.4817 24.6345C19.4647 24.4813 19.459 24.3338 19.4533 24.1862C18.1595 25.1226 17.2118 26.3256 17.0245 27.8522C16.3719 33.2262 17.3253 42.8167 18.7269 43.0323C20.1286 43.248 21.1558 31.6202 30.0255 30.7123C38.8953 29.8043 39.4968 42.0392 42.2037 40.6375C44.9163 39.2359 41.2333 27.3811 39.633 23.9762C38.0384 20.5713 37.5731 18.0347 39.5649 17.8758C41.5568 17.7169 41.5057 21.7801 43.6735 21.2012C44.3602 21.0197 45.6029 19.5782 45.2568 18.3638L45.2625 18.3582Z" fill="#A2DBE1"/>
<path d="M25.0203 29.2822C27.7896 28.9985 29.7929 26.4562 29.4978 23.6074C29.4126 22.7562 29.1289 21.9787 28.7033 21.3091C26.6547 21.4112 22.2397 22.1773 19.4533 24.1862C19.4533 24.3338 19.4647 24.487 19.4817 24.6345C19.7711 27.4833 22.251 29.566 25.0203 29.2822Z" fill="#970390"/>
<path d="M30.9562 46.562C23.6811 47.3054 16.5648 44.5248 11.9285 39.1223C11.4178 38.5265 11.4859 37.6298 12.0817 37.1191C12.6776 36.6084 13.5742 36.6765 14.0849 37.2723C18.1197 41.9711 24.3167 44.3886 30.6668 43.736C37.0169 43.0834 42.5953 39.4571 45.5916 34.0377C45.9718 33.351 46.8344 33.1013 47.521 33.4815C48.2077 33.8618 48.4574 34.7243 48.0772 35.411C44.6326 41.6476 38.2313 45.813 30.9562 46.562Z" fill="#970390"/>
<path d="M42.9812 14.2042C43.0323 14.7263 42.6521 15.1973 42.13 15.2483C41.6079 15.2994 41.1369 14.9192 41.0858 14.3971C41.0291 13.875 41.4149 13.404 41.937 13.353C42.4591 13.2962 42.9301 13.6821 42.9812 14.2042Z" fill="#970390"/>
</g>
<defs>
<clipPath id="clip0_82_319">
<rect width="60" height="47.8445" fill="white"/>
</clipPath>
</defs>
</svg>
